<svg xmlns="http://www.w3.org/2000/svg" xmlns:xlink="http://www.w3.org/1999/xlink" width="500" zoomAndPan="magnify" viewBox="0 0 375 374.999991" height="500" preserveAspectRatio="xMidYMid meet" version="1.0"><defs><clipPath id="07d5872316"><path d="M 187 36.191406 L 352.886719 36.191406 L 352.886719 300 L 187 300 Z M 187 36.191406 " clip-rule="nonzero"/></clipPath><clipPath id="89995cca5f"><path d="M 22.136719 36.191406 L 240 36.191406 L 240 338.441406 L 22.136719 338.441406 Z M 22.136719 36.191406 " clip-rule="nonzero"/></clipPath></defs><rect x="-37.5" width="450" fill="#ffffff" y="-37.499999" height="449.999989" fill-opacity="1"/><rect x="-37.5" width="450" fill="#171f4e" y="-37.499999" height="449.999989" fill-opacity="1"/><path fill="#ffffff" d="M 98.246094 177.394531 L 191.527344 177.394531 C 195.910156 177.394531 199.511719 180.996094 199.511719 185.378906 C 199.511719 189.761719 195.910156 193.363281 191.527344 193.363281 L 98.246094 193.363281 C 93.863281 193.363281 90.261719 189.761719 90.261719 185.378906 C 90.261719 180.925781 93.863281 177.394531 98.246094 177.394531 " fill-opacity="1" fill-rule="evenodd"/><path fill="#ffffff" d="M 98.246094 211.667969 L 237.039062 211.667969 C 241.417969 211.667969 245.023438 215.269531 245.023438 219.652344 C 245.023438 224.035156 241.417969 227.636719 237.039062 227.636719 L 98.246094 227.636719 C 93.863281 227.636719 90.261719 224.035156 90.261719 219.652344 C 90.261719 215.269531 93.863281 211.667969 98.246094 211.667969 " fill-opacity="1" fill-rule="evenodd"/><path fill="#ffffff" d="M 98.246094 143.117188 L 220.078125 143.117188 C 224.457031 143.117188 228.0625 146.722656 228.0625 151.105469 C 228.0625 155.484375 224.457031 159.089844 220.078125 159.089844 L 98.246094 159.089844 C 93.863281 159.089844 90.261719 155.484375 90.261719 151.105469 C 90.261719 146.652344 93.863281 143.117188 98.246094 143.117188 " fill-opacity="1" fill-rule="evenodd"/><g clip-path="url(#07d5872316)"><path fill="#ffffff" d="M 242.832031 268.835938 L 280.710938 268.835938 C 291.734375 268.835938 302.265625 264.386719 310.039062 256.613281 C 312.582031 254.066406 314.773438 251.242188 316.609375 248.132812 L 316.894531 247.707031 L 317.105469 247.285156 C 317.527344 246.578125 317.882812 245.800781 318.234375 245.023438 C 318.589844 244.246094 318.941406 243.46875 319.226562 242.691406 L 319.578125 241.773438 L 319.859375 240.78125 L 320.003906 240.289062 L 320.285156 239.296875 L 320.425781 238.804688 L 320.707031 237.8125 L 320.921875 236.824219 L 321.0625 236.332031 L 321.203125 235.835938 L 321.273438 235.339844 L 321.484375 234.351562 L 321.558594 233.855469 L 321.628906 233.363281 L 321.769531 232.371094 L 321.839844 231.878906 L 321.910156 231.382812 L 321.980469 230.890625 L 322.121094 229.898438 L 322.121094 106.65625 L 321.980469 105.664062 L 321.910156 105.171875 L 321.769531 104.179688 L 321.628906 103.191406 L 321.558594 102.695312 L 321.484375 102.203125 L 321.273438 101.214844 L 321.203125 100.71875 L 321.0625 100.222656 L 321.132812 99.515625 L 320.921875 98.527344 L 320.78125 98.03125 L 320.636719 97.539062 L 320.496094 97.042969 L 320.214844 96.054688 L 320.074219 95.558594 L 319.929688 95.066406 L 319.648438 94.640625 L 319.296875 93.722656 C 318.941406 92.945312 318.589844 92.167969 318.234375 91.390625 C 317.882812 90.613281 317.457031 89.90625 317.105469 89.128906 L 316.820312 88.703125 L 316.539062 88.28125 C 314.703125 85.242188 312.511719 82.34375 309.96875 79.800781 C 302.195312 72.027344 291.664062 67.574219 280.640625 67.574219 L 195.273438 67.574219 L 187.992188 36.621094 L 281.277344 36.621094 C 282.546875 36.621094 283.820312 36.691406 285.164062 36.761719 L 286.152344 36.761719 C 287 36.835938 287.917969 36.90625 288.765625 36.976562 L 288.835938 36.976562 L 289.332031 37.046875 L 289.757812 37.117188 C 290.675781 37.257812 291.523438 37.328125 292.371094 37.46875 L 292.792969 37.539062 L 293.21875 37.613281 C 294.066406 37.753906 294.984375 37.964844 295.832031 38.105469 L 296.257812 38.175781 L 296.679688 38.246094 C 297.53125 38.460938 298.378906 38.671875 299.226562 38.882812 L 299.578125 38.953125 L 300.074219 39.09375 L 300.425781 39.167969 L 300.921875 39.308594 C 302.050781 39.660156 303.183594 40.015625 304.3125 40.367188 L 304.597656 40.507812 L 305.089844 40.722656 L 305.375 40.863281 L 305.867188 41.074219 L 306.714844 41.429688 L 307 41.5 L 307.5625 41.710938 L 308.414062 42.0625 L 308.695312 42.207031 L 309.261719 42.417969 L 309.542969 42.558594 L 310.109375 42.769531 C 310.886719 43.125 311.734375 43.476562 312.511719 43.902344 L 312.722656 43.972656 L 313.289062 44.253906 L 314.066406 44.679688 L 314.277344 44.75 L 314.84375 45.03125 L 315.054688 45.101562 L 315.621094 45.457031 L 315.761719 45.527344 L 316.328125 45.878906 L 317.035156 46.304688 L 317.105469 46.375 L 317.246094 46.445312 L 317.8125 46.796875 L 317.953125 46.871094 L 318.589844 47.222656 L 318.730469 47.292969 L 319.367188 47.648438 L 320.851562 48.636719 L 320.992188 48.707031 L 321.628906 49.128906 L 322.335938 49.625 L 322.40625 49.695312 L 323.039062 50.121094 L 323.113281 50.191406 L 323.746094 50.683594 L 323.816406 50.757812 L 324.453125 51.25 L 324.59375 51.460938 L 325.230469 51.957031 L 325.300781 52.027344 L 325.9375 52.523438 L 326.007812 52.59375 L 326.644531 53.089844 L 326.714844 53.160156 L 327.351562 53.652344 L 327.421875 53.722656 L 328.058594 54.289062 L 328.128906 54.289062 L 329.402344 55.421875 L 330.035156 55.984375 L 332.582031 58.53125 L 333.21875 59.164062 L 333.851562 59.800781 L 334.488281 60.4375 L 335.054688 61.074219 L 335.621094 61.78125 L 336.183594 62.488281 L 337.316406 63.828125 L 337.882812 64.535156 L 338.445312 65.242188 C 339.011719 65.949219 339.507812 66.65625 340 67.363281 L 340.992188 68.777344 L 341.484375 69.484375 L 341.980469 70.261719 L 342.472656 71.039062 C 342.898438 71.957031 343.324219 72.664062 343.746094 73.441406 L 344.171875 74.21875 L 344.59375 74.996094 L 345.019531 75.773438 L 345.441406 76.550781 L 346.21875 78.105469 L 346.574219 78.882812 L 346.925781 79.660156 L 347.28125 80.4375 L 347.632812 81.214844 L 347.988281 82.0625 L 348.339844 82.910156 C 348.765625 84.039062 349.1875 85.101562 349.542969 86.230469 L 350.105469 87.925781 L 350.390625 88.773438 C 350.601562 89.625 350.882812 90.472656 351.097656 91.320312 L 351.308594 92.167969 L 351.378906 93.15625 L 351.800781 94.851562 L 351.945312 95.699219 L 352.085938 96.546875 L 352.226562 97.398438 L 352.507812 99.09375 L 352.652344 99.941406 L 352.863281 101.707031 L 352.933594 102.625 L 353.003906 103.546875 L 353.144531 105.3125 L 353.214844 106.230469 L 353.214844 229.898438 L 353.144531 230.816406 L 353.003906 232.585938 L 352.863281 234.421875 L 352.652344 236.1875 L 352.507812 237.035156 L 352.367188 237.886719 L 351.945312 240.429688 L 351.800781 241.277344 L 351.167969 243.820312 L 350.953125 244.667969 C 350.742188 245.515625 350.53125 246.363281 350.246094 247.214844 L 349.683594 248.910156 L 349.398438 249.757812 C 349.046875 250.886719 348.621094 251.949219 348.199219 253.078125 L 347.84375 253.925781 L 347.492188 254.773438 L 347.136719 255.550781 L 346.433594 257.105469 L 346.078125 257.882812 L 345.300781 259.4375 L 344.878906 260.214844 L 344.027344 261.769531 L 343.605469 262.546875 C 343.179688 263.324219 342.6875 264.101562 342.261719 264.808594 L 341.769531 265.585938 L 340.777344 267 L 340.285156 267.707031 L 339.789062 268.414062 C 339.292969 269.121094 338.730469 269.828125 338.234375 270.535156 L 337.667969 271.242188 L 337.105469 271.945312 C 336.75 272.441406 336.328125 272.867188 335.972656 273.289062 L 335.40625 273.925781 L 334.84375 274.5625 L 334.277344 275.199219 L 333.640625 275.832031 L 332.367188 277.105469 L 331.734375 277.742188 L 330.460938 279.015625 L 329.824219 279.648438 L 329.1875 280.214844 L 327.917969 281.347656 L 327.847656 281.347656 L 327.210938 281.910156 L 327.140625 281.980469 L 326.503906 282.476562 L 326.433594 282.546875 L 325.796875 283.042969 L 325.726562 283.113281 L 325.089844 283.605469 L 325.019531 283.679688 L 324.382812 284.171875 L 324.3125 284.242188 L 323.675781 284.738281 L 323.605469 284.808594 L 322.96875 285.304688 L 322.898438 285.375 L 322.261719 285.796875 L 322.191406 285.867188 L 321.484375 286.363281 L 320.851562 286.789062 L 320.707031 286.859375 L 319.226562 287.847656 L 318.589844 288.199219 L 318.449219 288.269531 L 317.8125 288.625 L 317.671875 288.695312 L 317.105469 289.046875 L 316.964844 289.121094 L 316.894531 289.191406 L 316.1875 289.613281 L 315.621094 289.96875 L 315.480469 290.039062 L 314.914062 290.390625 L 314.703125 290.460938 L 314.136719 290.746094 L 313.925781 290.816406 L 313.148438 291.238281 L 312.582031 291.523438 L 312.371094 291.59375 C 311.59375 292.015625 310.746094 292.371094 309.96875 292.722656 L 309.402344 292.933594 L 309.117188 293.078125 L 308.554688 293.289062 L 308.269531 293.429688 L 307.636719 294.5625 L 307.070312 294.773438 L 306.785156 294.914062 L 305.9375 295.195312 L 305.445312 295.410156 L 305.160156 295.550781 L 304.667969 295.761719 L 304.382812 295.832031 C 303.253906 296.1875 302.121094 296.609375 300.992188 296.894531 L 300.496094 297.035156 L 300.144531 297.105469 L 299.648438 297.246094 L 299.296875 297.316406 C 298.449219 297.527344 297.601562 297.742188 296.753906 297.953125 L 296.1875 298.09375 L 295.761719 298.164062 C 294.914062 298.375 293.996094 298.519531 293.148438 298.660156 L 292.722656 298.730469 L 292.300781 298.800781 C 291.453125 298.941406 290.535156 299.082031 289.683594 299.152344 L 289.261719 299.226562 L 288.765625 299.296875 L 288.695312 299.296875 C 287.847656 299.367188 286.929688 299.4375 286.082031 299.507812 L 285.09375 299.507812 C 283.820312 299.578125 282.546875 299.648438 281.207031 299.648438 L 250.039062 299.648438 Z M 242.832031 268.835938 " fill-opacity="1" fill-rule="evenodd"/></g><g clip-path="url(#89995cca5f)"><path fill="#ffffff" d="M 224.457031 277.175781 L 229.828125 299.71875 L 239.015625 338.585938 L 178.3125 299.71875 L 94.640625 299.71875 C 75.347656 299.71875 57.046875 292.085938 43.40625 278.449219 C 29.769531 264.878906 22.136719 246.578125 22.136719 227.285156 L 22.136719 109.128906 C 22.136719 89.835938 29.769531 71.53125 43.40625 57.894531 C 57.046875 44.253906 75.347656 36.621094 94.640625 36.621094 L 167.640625 36.621094 L 174.921875 67.574219 L 94.640625 67.574219 C 83.617188 67.574219 73.085938 71.957031 65.3125 79.800781 C 57.46875 87.574219 53.089844 98.105469 53.089844 109.128906 L 53.089844 227.285156 C 53.089844 238.308594 57.539062 248.839844 65.3125 256.613281 C 73.085938 264.386719 83.617188 268.835938 94.640625 268.835938 L 222.480469 268.835938 Z M 224.457031 277.175781 " fill-opacity="1" fill-rule="evenodd"/></g><path fill="#ffffff" d="M 98.246094 108.773438 L 277.105469 108.773438 C 281.488281 108.773438 285.09375 112.378906 285.09375 116.761719 C 285.09375 121.140625 281.488281 124.746094 277.105469 124.746094 L 98.246094 124.746094 C 93.863281 124.746094 90.261719 121.140625 90.261719 116.761719 C 90.261719 112.378906 93.863281 108.773438 98.246094 108.773438 " fill-opacity="1" fill-rule="evenodd"/></svg>